<?xml version="1.0" encoding="UTF-8"?>
<svg id="Layer_2" data-name="Layer 2" xmlns="http://www.w3.org/2000/svg" viewBox="0 0 589.27 257.23">
  <defs>
    <style>
      .cls-1 {
        fill: #fe563d;
      }

      .cls-2 {
        fill: #fff;
      }

      .cls-3 {
        fill: #2a2a2a;
      }
    </style>
  </defs>
  <g id="Layer_1-2" data-name="Layer 1">
    <g>
      <path class="cls-3" d="M212.89,104.23l1-1.32c-.6.27-1.2.52-1.82.71-.62.18-1.24.36-1.85.37-18.15.39-36.38.39-54.53,0-.61-.01-1.23-.19-1.85-.37-.62-.18-1.23-.43-1.83-.71l.99,1.32c2.16,39.22,57.46,39.73,59.89,0Z"/>
      <path class="cls-3" d="M262.66,235.61H103.25s-9.66-97.19,79.68-97.19,79.72,97.19,79.72,97.19Z"/>
      <path class="cls-3" d="M204.25,35.53s-3.96-10.99-21.27-11.01h0s-.02,0-.03,0-.02,0-.03,0h0c-17.31.03-21.27,11.02-21.27,11.02,0,0-26.69-7.06-26.69,15.95s18.56,24.35,18.56,24.35v19.22h58.87v-19.22s18.56-1.34,18.56-24.35-26.69-15.95-26.69-15.95Z"/>
    </g>
    <g>
      <path class="cls-3" d="M436.51,104.23l1-1.32c-.6.27-1.2.52-1.82.71-.62.18-1.24.36-1.85.37-18.15.39-36.38.39-54.53,0-.61-.01-1.23-.19-1.85-.37-.62-.18-1.23-.43-1.83-.71l.99,1.32c2.16,39.22,57.46,39.73,59.89,0Z"/>
      <path class="cls-3" d="M486.27,235.61h-159.4s-9.66-97.19,79.68-97.19,79.72,97.19,79.72,97.19Z"/>
      <path class="cls-3" d="M427.87,35.53s-3.96-10.99-21.27-11.01h0s-.02,0-.03,0-.02,0-.03,0h0c-17.31.03-21.27,11.02-21.27,11.02,0,0-26.69-7.06-26.69,15.95s18.56,24.35,18.56,24.35v19.22h58.87v-19.22s18.56-1.34,18.56-24.35-26.69-15.95-26.69-15.95Z"/>
    </g>
    <g>
      <path class="cls-3" d="M539.2,79.71l1-1.32c-.6.27-1.2.52-1.82.71-.62.18-1.24.36-1.85.37-18.15.39-36.38.39-54.53,0-.61-.01-1.23-.19-1.85-.37-.62-.18-1.23-.43-1.83-.71l.99,1.32c2.16,39.22,57.46,39.73,59.89,0Z"/>
      <path class="cls-3" d="M588.96,211.09h-159.4s-9.66-97.19,79.68-97.19,79.72,97.19,79.72,97.19Z"/>
      <path class="cls-3" d="M530.56,11.02S526.6.03,509.29,0h0s-.02,0-.03,0-.02,0-.03,0h0c-17.31.03-21.27,11.02-21.27,11.02,0,0-26.69-7.06-26.69,15.95s18.56,24.35,18.56,24.35v19.22h58.87v-19.22s18.56-1.34,18.56-24.35-26.69-15.95-26.69-15.95Z"/>
    </g>
    <g>
      <path class="cls-3" d="M109.95,79.71l1-1.32c-.6.27-1.2.52-1.82.71-.62.18-1.24.36-1.85.37-18.15.39-36.38.39-54.53,0-.61-.01-1.23-.19-1.85-.37-.62-.18-1.23-.43-1.83-.71l.99,1.32c2.16,39.22,57.46,39.73,59.89,0Z"/>
      <path class="cls-3" d="M159.71,211.09H.31s-9.66-97.19,79.68-97.19,79.72,97.19,79.72,97.19Z"/>
      <path class="cls-3" d="M101.31,11.02S97.35.03,80.04,0h0s-.02,0-.03,0-.02,0-.03,0h0c-17.31.03-21.27,11.02-21.27,11.02,0,0-26.69-7.06-26.69,15.95s18.56,24.35,18.56,24.35v19.22h58.87v-19.22s18.56-1.34,18.56-24.35-26.69-15.95-26.69-15.95Z"/>
    </g>
    <g>
      <path class="cls-2" d="M259.06,109l1.12,1.48c2.43,44.13,64.65,44.7,67.38,0l1.13-1.49c-.7-1.15.03-1.56,1.23-1.69,3.08.55,5.43-.04,7.04-1.76l1.28.09c-.35,16.53-2.51,27.42-15.46,38.74-.86.75-6.66,4.19-5.88,5.07,35.09,8.58,61.8,40.28,65.69,76.12.73,6.7,1.5,20.57.53,26.92s-8.79,6.21-9.94.47c-1.28-6.37.35-17.01-.11-24.05-1.93-29.58-22.99-56.94-50.37-67.53l-38.2,19.98c-2.67,1.76-4.38,3.82-4.69,7.1-1.92,20.04,1.54,43.09-.02,63.45-.69,6.95-9.57,7.12-10.08.08,1.18-20.53-1.48-42.62,0-62.96.27-3.7,1.53-7.88,3.71-10.89,4.1-5.65,23.41-14.42,30.55-18.3,1.42-.77,2.92-1.58,4.5-1.96.02-.84-2-.82-2.7-.94-38.44-6.7-77.44,18.94-87.98,56-3.93,13.82-2.95,26.28-3.36,40.45-2.59,6.1-9.24,4.62-9.87-1.95-.83-8.6-.07-22.16,1.31-30.76,5.45-33.79,31.7-63.1,64.97-71.22.79-.87-5.02-4.32-5.88-5.07-13.03-11.39-15.13-22.11-15.46-38.74l1.28-.09c1.9,1.64,4.61,2.33,8.13,2.08l.14,1.38Z"/>
      <path class="cls-1" d="M249.52,105.63c-.15-7.63.19-15.31-.09-22.94-36.17-13.44-22.92-66.33,15.43-60.84,13.7-12.76,34.06-15.05,50.32-5.77,1.61.92,7.27,5.66,7.74,5.77,1.01.24,6.46-.64,8.81-.41,5.42.54,15.7,4.62,18.88,9.2,3.34,4.81-1.32,10.2-6.92,6.93-5.9-3.45-7.1-6.34-15.25-6.33-2.57,0-6.7,1.34-8.87.69-.73-.22-4.79-4.26-6.06-5.17-11.94-8.62-26.84-8.84-38.88-.23-1.31.94-5.68,5.19-6.39,5.4-2.2.66-8.86-.83-12.24-.45-18.61,2.09-24.86,28.05-8.77,39.11,2.58,1.77,11.86,4.26,11.86,6.67v21.62h69.63v-21.62c0-2.56,9.74-4.94,12.32-6.78,3.85-2.74,7.82-12.37,13.24-7.56,3.66,3.25.12,7.97-2.25,10.69-3.63,4.18-8.46,7.26-13.67,9.07-.3,7.63.07,15.3-.09,22.94-2.13,3.6-4.7,2.63-8.18,2.79-.72.03-1.29.58-1.36.58-.67.31-1.35.59-2.05.79s-1.39.4-2.08.42c-20.42.44-40.93.44-61.35,0-.69-.01-1.38-.21-2.08-.42s-1.38-.49-2.05-.79c-.07,0-.65-.55-1.36-.58-3.48-.16-6.05.81-8.18-2.79Z"/>
      <path class="cls-2" d="M306.05,205.79c.69.63,1.21,1.94,1.32,2.89.45,3.65.51,16.73-.06,20.21-.78,4.76-8.72,4.81-9.48,0-.53-3.35-.53-17.37,0-20.71.57-3.63,5.62-4.75,8.21-2.38Z"/>
    </g>
  </g>
</svg>