<?xml version="1.0" encoding="UTF-8"?>
<svg id="Layer_2" data-name="Layer 2" xmlns="http://www.w3.org/2000/svg" viewBox="0 0 159.4 219.36">
  <defs>
    <style>
      .cls-1 {
        fill: #fe563d;
      }

      .cls-2 {
        fill: #fff;
      }
    </style>
  </defs>
  <g id="Layer_1-2" data-name="Layer 1">
    <g>
      <path class="cls-2" d="M48.74,87.61l.99,1.32c2.16,39.22,57.46,39.73,59.89,0l1-1.32c-.62-1.02.02-1.38,1.09-1.5,2.74.49,4.82-.03,6.25-1.57l1.14.08c-.31,14.69-2.23,24.37-13.74,34.43-.76.67-5.92,3.73-5.22,4.5,31.19,7.62,54.93,35.8,58.38,67.65.65,5.96,1.33,18.28.47,23.93s-7.81,5.52-8.84.42c-1.14-5.66.31-15.11-.09-21.37-1.72-26.29-20.44-50.61-44.77-60.02l-33.95,17.76c-2.38,1.57-3.89,3.39-4.17,6.31-1.71,17.81,1.37,38.3-.02,56.39-.61,6.18-8.5,6.33-8.96.07,1.05-18.24-1.31-37.88,0-55.96.24-3.28,1.36-7.01,3.3-9.68,3.65-5.02,20.81-12.82,27.15-16.27,1.26-.68,2.6-1.4,4-1.74.02-.74-1.78-.73-2.4-.84-34.17-5.96-68.83,16.84-78.2,49.77-3.5,12.29-2.63,23.35-2.98,35.96-2.3,5.42-8.21,4.11-8.77-1.73-.73-7.65-.06-19.7,1.17-27.34,4.84-30.03,28.18-56.09,57.74-63.3.7-.78-4.46-3.84-5.22-4.5-11.58-10.12-13.44-19.65-13.74-34.43l1.14-.08c1.69,1.46,4.09,2.07,7.23,1.84l.12,1.23Z"/>
      <path class="cls-1" d="M40.26,84.62c-.14-6.78.17-13.6-.08-20.39C8.03,52.28,19.8,5.28,53.88,10.15c12.18-11.34,30.27-13.37,44.72-5.12,1.43.82,6.46,5.03,6.88,5.12.9.21,5.74-.57,7.83-.36,4.82.48,13.96,4.11,16.78,8.18,2.96,4.28-1.17,9.07-6.15,6.16-5.24-3.06-6.31-5.64-13.56-5.62-2.29,0-5.95,1.19-7.88.61-.65-.2-4.26-3.78-5.38-4.6-10.61-7.66-23.86-7.85-34.56-.21-1.17.83-5.05,4.61-5.68,4.8-1.95.59-7.88-.74-10.88-.4-16.54,1.86-22.1,24.93-7.8,34.76,2.29,1.58,10.54,3.78,10.54,5.93v19.22h61.88v-19.22c0-2.28,8.65-4.39,10.95-6.02,3.42-2.43,6.95-11,11.77-6.72,3.25,2.89.1,7.08-2,9.5-3.23,3.71-7.52,6.45-12.15,8.06-.26,6.78.06,13.6-.08,20.39-1.9,3.2-4.18,2.34-7.27,2.48-.64.03-1.15.51-1.21.52-.6.27-1.2.52-1.82.71s-1.24.36-1.85.37c-18.15.39-36.38.39-54.53,0-.61-.01-1.23-.19-1.85-.37s-1.23-.43-1.83-.71c-.07,0-.57-.49-1.21-.52-3.09-.14-5.38.72-7.27-2.48Z"/>
      <path class="cls-2" d="M90.5,173.64c.61.56,1.07,1.72,1.18,2.57.4,3.25.46,14.87-.05,17.96-.69,4.23-7.75,4.28-8.42,0-.47-2.97-.47-15.44,0-18.41.51-3.23,4.99-4.22,7.3-2.12Z"/>
    </g>
  </g>
</svg>