<?xml version="1.0" encoding="UTF-8"?>
<svg id="Layer_2" data-name="Layer 2" xmlns="http://www.w3.org/2000/svg" viewBox="0 0 509.16 222.26">
  <defs>
    <style>
      .cls-1 {
        fill: #58595b;
      }

      .cls-2 {
        fill: #fe563d;
      }

      .cls-3 {
        fill: #fff;
      }
    </style>
  </defs>
  <g id="Layer_1-2" data-name="Layer 1">
    <g>
      <path class="cls-1" d="M183.95,90.06l.86-1.14c-.52.23-1.04.45-1.58.61-.54.16-1.07.31-1.6.32-15.68.33-31.43.33-47.12,0-.53-.01-1.06-.16-1.6-.32-.54-.16-1.06-.37-1.58-.61l.86,1.14c1.86,33.89,49.65,34.33,51.75,0Z"/>
      <path class="cls-1" d="M226.95,203.58H89.22s-8.35-83.98,68.85-83.98,68.89,83.98,68.89,83.98Z"/>
      <path class="cls-1" d="M176.49,30.7s-3.42-9.5-18.38-9.52h0s-.02,0-.03,0-.02,0-.03,0h0c-14.96.02-18.38,9.52-18.38,9.52,0,0-23.06-6.1-23.06,13.78s16.03,21.04,16.03,21.04v16.61h50.87v-16.61s16.03-1.15,16.03-21.04-23.06-13.78-23.06-13.78Z"/>
    </g>
    <g>
      <path class="cls-1" d="M377.17,90.06l.86-1.14c-.52.23-1.04.45-1.58.61-.54.16-1.07.31-1.6.32-15.68.33-31.43.33-47.12,0-.53-.01-1.06-.16-1.6-.32-.54-.16-1.06-.37-1.58-.61l.86,1.14c1.86,33.89,49.65,34.33,51.75,0Z"/>
      <path class="cls-1" d="M420.17,203.58h-137.74s-8.35-83.98,68.85-83.98,68.89,83.98,68.89,83.98Z"/>
      <path class="cls-1" d="M369.71,30.7s-3.42-9.5-18.38-9.52h0s-.02,0-.03,0-.02,0-.03,0h0c-14.96.02-18.38,9.52-18.38,9.52,0,0-23.06-6.1-23.06,13.78s16.03,21.04,16.03,21.04v16.61h50.87v-16.61s16.03-1.15,16.03-21.04-23.06-13.78-23.06-13.78Z"/>
    </g>
    <g>
      <path class="cls-1" d="M465.9,68.88l.86-1.14c-.52.23-1.04.45-1.58.61-.54.16-1.07.31-1.6.32-15.68.33-31.43.33-47.12,0-.53-.01-1.06-.16-1.6-.32-.54-.16-1.06-.37-1.58-.61l.86,1.14c1.86,33.89,49.65,34.33,51.75,0Z"/>
      <path class="cls-1" d="M508.9,182.4h-137.74s-8.35-83.98,68.85-83.98,68.89,83.98,68.89,83.98Z"/>
      <path class="cls-1" d="M458.44,9.52S455.02.02,440.06,0h0s-.02,0-.03,0-.02,0-.03,0h0c-14.96.02-18.38,9.52-18.38,9.52,0,0-23.06-6.1-23.06,13.78s16.03,21.04,16.03,21.04v16.61h50.87v-16.61s16.03-1.15,16.03-21.04-23.06-13.78-23.06-13.78Z"/>
    </g>
    <g>
      <path class="cls-1" d="M95,68.88l.86-1.14c-.52.23-1.04.45-1.58.61-.54.16-1.07.31-1.6.32-15.68.33-31.43.33-47.12,0-.53-.01-1.06-.16-1.6-.32-.54-.16-1.06-.37-1.58-.61l.86,1.14c1.86,33.89,49.65,34.33,51.75,0Z"/>
      <path class="cls-1" d="M138,182.4H.26s-8.35-83.98,68.85-83.98,68.89,83.98,68.89,83.98Z"/>
      <path class="cls-1" d="M87.54,9.52S84.12.02,69.16,0h0s-.02,0-.03,0-.02,0-.03,0h0c-14.96.02-18.38,9.52-18.38,9.52,0,0-23.06-6.1-23.06,13.78s16.03,21.04,16.03,21.04v16.61h50.87v-16.61s16.03-1.15,16.03-21.04-23.06-13.78-23.06-13.78Z"/>
    </g>
    <g>
      <path class="cls-3" d="M223.85,94.19l.97,1.28c2.1,38.13,55.86,38.62,58.22,0l.97-1.29c-.61-.99.02-1.35,1.06-1.46,2.66.47,4.69-.03,6.08-1.52l1.1.07c-.31,14.28-2.16,23.69-13.36,33.47-.74.65-5.76,3.62-5.08,4.38,30.32,7.41,53.4,34.8,56.76,65.77.63,5.79,1.3,17.77.46,23.26s-7.59,5.37-8.59.4c-1.11-5.5.31-14.69-.09-20.78-1.67-25.56-19.87-49.2-43.52-58.35l-33,17.26c-2.31,1.52-3.78,3.3-4.05,6.14-1.66,17.31,1.33,37.23-.02,54.82-.6,6.01-8.27,6.15-8.71.07,1.02-17.74-1.28-36.83,0-54.4.23-3.19,1.32-6.81,3.21-9.41,3.54-4.88,20.23-12.46,26.4-15.82,1.22-.67,2.53-1.36,3.89-1.69.02-.72-1.73-.71-2.33-.81-33.21-5.79-66.91,16.37-76.02,48.38-3.4,11.94-2.55,22.7-2.9,34.96-2.24,5.27-7.98,3.99-8.53-1.69-.71-7.43-.06-19.15,1.14-26.58,4.71-29.19,27.39-54.53,56.14-61.54.68-.75-4.34-3.73-5.08-4.38-11.26-9.84-13.07-19.11-13.36-33.47l1.1-.07c1.64,1.42,3.98,2.02,7.03,1.79l.12,1.19Z"/>
      <path class="cls-2" d="M215.6,91.27c-.13-6.6.17-13.22-.08-19.82-31.25-11.61-19.8-57.31,13.33-52.57,11.84-11.03,29.43-13,43.48-4.98,1.39.79,6.28,4.89,6.68,4.98.87.2,5.58-.55,7.61-.35,4.68.46,13.57,3.99,16.31,7.95,2.88,4.16-1.14,8.82-5.98,5.99-5.1-2.98-6.13-5.48-13.18-5.47-2.22,0-5.79,1.16-7.66.59-.63-.19-4.14-3.68-5.23-4.47-10.32-7.45-23.19-7.63-33.6-.2-1.13.81-4.91,4.49-5.52,4.67-1.9.57-7.66-.71-10.58-.39-16.08,1.8-21.48,24.23-7.58,33.8,2.23,1.53,10.25,3.68,10.25,5.76v18.69h60.16v-18.69c0-2.21,8.41-4.27,10.64-5.85,3.32-2.37,6.76-10.69,11.44-6.53,3.16,2.81.1,6.88-1.95,9.24-3.14,3.61-7.31,6.27-11.81,7.84-.26,6.59.06,13.22-.08,19.82-1.84,3.11-4.06,2.28-7.07,2.41-.62.03-1.11.5-1.18.5-.58.26-1.17.51-1.77.69s-1.2.35-1.8.36c-17.65.38-35.37.38-53.01,0-.6-.01-1.19-.18-1.8-.36s-1.19-.42-1.78-.69c-.06,0-.56-.47-1.18-.5-3.01-.13-5.23.7-7.07-2.41Z"/>
      <path class="cls-3" d="M264.45,177.82c.6.54,1.04,1.68,1.14,2.49.38,3.16.44,14.46-.05,17.46-.67,4.12-7.53,4.16-8.19,0-.46-2.89-.46-15.01,0-17.9.5-3.14,4.86-4.1,7.09-2.06Z"/>
    </g>
  </g>
</svg>